<svg width="45" height="45" viewBox="0 0 45 45" fill="none" xmlns="http://www.w3.org/2000/svg">
<path d="M37.625 6H7.375C4.33743 6 1.875 8.46243 1.875 11.5V33.5C1.875 36.5376 4.33743 39 7.375 39H37.625C40.6626 39 43.125 36.5376 43.125 33.5V11.5C43.125 8.46243 40.6626 6 37.625 6Z" fill="white"/>
<path d="M2.75195 8.53825H42.2475C41.2698 7.01475 39.5703 6 37.6247 6H7.3747C5.43045 6 3.73095 7.01475 2.75195 8.53825Z" fill="#A62842"/>
<path d="M3.29125 11.0765C3.28025 11.2182 3.25 11.3543 3.25 11.5V13.6162H43.125V11.5C43.125 11.3557 43.0947 11.2195 43.0837 11.0765H3.29125Z" fill="#A62842"/>
<path d="M3.25 16.1544H43.125V18.6927H3.25V16.1544Z" fill="#A62842"/>
<path d="M3.25 21.2308H43.125V23.7691H3.25V21.2308Z" fill="#A62842"/>
<path d="M1.875 26.3074H43.125V28.8456H1.875V26.3074Z" fill="#A62842"/>
<path d="M1.875 33.5C1.875 33.6444 1.90663 33.7805 1.91763 33.9235H43.0824C43.0934 33.7819 43.125 33.6458 43.125 33.5V31.3839H1.875V33.5Z" fill="#A62842"/>
<path d="M42.2475 36.4618H2.75195C3.72958 37.9853 5.42908 39 7.3747 39H37.6247C39.569 39 41.2685 37.9853 42.2475 36.4618Z" fill="#A62842"/>
<path d="M7.375 6H22.5V23.7691H1.875V11.5C1.875 8.464 4.339 6 7.375 6Z" fill="#102D5E"/>
<path opacity="0.15" d="M37.625 6H7.375C4.33762 6 1.875 8.46262 1.875 11.5V33.5C1.875 36.5374 4.33762 39 7.375 39H37.625C40.6624 39 43.125 36.5374 43.125 33.5V11.5C43.125 8.46262 40.6624 6 37.625 6ZM41.75 33.5C41.75 35.7743 39.8993 37.625 37.625 37.625H7.375C5.10075 37.625 3.25 35.7743 3.25 33.5V11.5C3.25 9.22575 5.10075 7.375 7.375 7.375H37.625C39.8993 7.375 41.75 9.22575 41.75 11.5V33.5Z" fill="black"/>
<path opacity="0.2" d="M37.625 7.375H7.375C5.09663 7.375 3.25 9.22163 3.25 11.5V12.875C3.25 10.5966 5.09663 8.75 7.375 8.75H37.625C39.9034 8.75 41.75 10.5966 41.75 12.875V11.5C41.75 9.22163 39.9034 7.375 37.625 7.375Z" fill="white"/>
<path d="M6.82556 10.7616L7.63956 10.1703H6.63444L6.32369 9.21472L6.01294 10.1703H5.00781L5.82044 10.7616L5.50969 11.7172L6.32369 11.1273L7.13631 11.7172L6.82556 10.7616Z" fill="white"/>
<path d="M10.9232 10.7616L11.7372 10.1703H10.7321L10.4213 9.21472L10.1106 10.1703H9.10547L9.91809 10.7616L9.60734 11.7172L10.4213 11.1273L11.234 11.7172L10.9232 10.7616Z" fill="white"/>
<path d="M15.0203 10.7616L15.8329 10.1703H14.8278L14.517 9.21472L14.2063 10.1703H13.2012L14.0138 10.7616L13.7044 11.7172L14.517 11.1273L15.3297 11.7172L15.0203 10.7616Z" fill="white"/>
<path d="M8.84119 13.2642L9.65519 12.6743H8.65006L8.33931 11.7173L8.02856 12.6743H7.02344L7.83606 13.2642L7.52531 14.2212L8.33931 13.6299L9.15194 14.2212L8.84119 13.2642Z" fill="white"/>
<path d="M12.9383 13.2642L13.7509 12.6743H12.7458L12.435 11.7173L12.1243 12.6743H11.1191L11.9318 13.2642L11.6224 14.2212L12.435 13.6299L13.2476 14.2212L12.9383 13.2642Z" fill="white"/>
<path d="M17.034 13.2642L17.8466 12.6743H16.8415L16.5307 11.7173L16.22 12.6743H15.2148L16.0288 13.2642L15.7181 14.2212L16.5307 13.6299L17.3447 14.2212L17.034 13.2642Z" fill="white"/>
<path d="M8.84119 18.2705L9.65519 17.6793H8.65006L8.33931 16.7236L8.02856 17.6793H7.02344L7.83606 18.2705L7.52531 19.2261L8.33931 18.6363L9.15194 19.2261L8.84119 18.2705Z" fill="white"/>
<path d="M12.9383 18.2705L13.7509 17.6793H12.7458L12.435 16.7236L12.1243 17.6793H11.1191L11.9318 18.2705L11.6224 19.2261L12.435 18.6363L13.2476 19.2261L12.9383 18.2705Z" fill="white"/>
<path d="M17.034 18.2705L17.8466 17.6793H16.8415L16.5307 16.7236L16.22 17.6793H15.2148L16.0288 18.2705L15.7181 19.2261L16.5307 18.6363L17.3447 19.2261L17.034 18.2705Z" fill="white"/>
<path d="M19.116 10.7616L19.9286 10.1703H18.9235L18.6128 9.21472L18.302 10.1703H17.2969L18.1109 10.7616L17.8001 11.7172L18.6128 11.1273L19.4268 11.7172L19.116 10.7616Z" fill="white"/>
<path d="M6.82556 15.7679L7.63956 15.1767H6.63444L6.32369 14.2211L6.01294 15.1767H5.00781L5.82044 15.7679L5.50969 16.7236L6.32369 16.1323L7.13631 16.7236L6.82556 15.7679Z" fill="white"/>
<path d="M10.9232 15.7679L11.7372 15.1767H10.7321L10.4213 14.2211L10.1106 15.1767H9.10547L9.91809 15.7679L9.60734 16.7236L10.4213 16.1323L11.234 16.7236L10.9232 15.7679Z" fill="white"/>
<path d="M15.0203 15.7679L15.8329 15.1767H14.8278L14.517 14.2211L14.2063 15.1767H13.2012L14.0138 15.7679L13.7044 16.7236L14.517 16.1323L15.3297 16.7236L15.0203 15.7679Z" fill="white"/>
<path d="M19.116 15.7679L19.9286 15.1767H18.9235L18.6128 14.2211L18.302 15.1767H17.2969L18.1109 15.7679L17.8001 16.7236L18.6128 16.1323L19.4268 16.7236L19.116 15.7679Z" fill="white"/>
<path d="M6.82556 20.7729L7.63956 20.1831H6.63444L6.32369 19.2261L6.01294 20.1831H5.00781L5.82044 20.7729L5.50969 21.7299L6.32369 21.1387L7.13631 21.7299L6.82556 20.7729Z" fill="white"/>
<path d="M10.9232 20.7729L11.7372 20.1831H10.7321L10.4213 19.2261L10.1106 20.1831H9.10547L9.91809 20.7729L9.60734 21.7299L10.4213 21.1387L11.234 21.7299L10.9232 20.7729Z" fill="white"/>
<path d="M15.0203 20.7729L15.8329 20.1831H14.8278L14.517 19.2261L14.2063 20.1831H13.2012L14.0138 20.7729L13.7044 21.7299L14.517 21.1387L15.3297 21.7299L15.0203 20.7729Z" fill="white"/>
<path d="M19.116 20.7729L19.9286 20.1831H18.9235L18.6128 19.2261L18.302 20.1831H17.2969L18.1109 20.7729L17.8001 21.7299L18.6128 21.1387L19.4268 21.7299L19.116 20.7729Z" fill="white"/>
</svg>
