<svg width="45" height="45" viewBox="0 0 45 45" fill="none" xmlns="http://www.w3.org/2000/svg">
<path d="M37.625 6H7.375C4.33743 6 1.875 8.46243 1.875 11.5V33.5C1.875 36.5376 4.33743 39 7.375 39H37.625C40.6626 39 43.125 36.5376 43.125 33.5V11.5C43.125 8.46243 40.6626 6 37.625 6Z" fill="#061B65"/>
<path d="M9.4375 19.4393V22.5H14.9375V19.4379L19.1134 22.5H22.5V20.7936L17.3272 17H22.5V11.5H18.7325L22.5 8.73763V6H20.5186L14.9375 10.0934V6H9.4375V9.84175L4.95913 6.55688C3.9045 7.07113 3.04925 7.9085 2.50338 8.94663L5.98488 11.5014H1.875V17.0014H7.04913L1.875 20.7964V22.5014H5.263L9.4375 19.4393Z" fill="white"/>
<path d="M2.98242 8.18491L7.4993 11.5H9.3748L3.74417 7.36816C3.46367 7.61566 3.20792 7.88654 2.98242 8.18491Z" fill="#D22D32"/>
<path d="M1.875 22.5L9.37425 17V18.375L3.74912 22.5H1.875Z" fill="#D22D32"/>
<path d="M9.90181 26.2689L10.6388 28.5597L12.8883 27.7072L11.5573 29.7105L13.6267 30.9384L11.2301 31.1474L11.5601 33.5303L9.90319 31.7868L8.24631 33.5303L8.57631 31.1474L6.17969 30.9384L8.24906 29.7105L6.91806 27.7072L9.16756 28.5597L9.90456 26.2689H9.90181Z" fill="white"/>
<path d="M32.2812 30.4131L32.6814 31.6588L33.9051 31.1955L33.1805 32.2858L34.3066 32.9541L33.0031 33.0668L33.1832 34.3635L32.2812 33.4147L31.3792 34.3635L31.5594 33.0668L30.2559 32.9541L31.382 32.2858L30.6574 31.1955L31.8811 31.6588L32.2812 30.4131Z" fill="white"/>
<path d="M28.2285 18.5497L28.6286 19.7954L29.8524 19.3321L29.1277 20.4224L30.2539 21.0907L28.9504 21.2034L29.1305 22.5001L28.2285 21.5513L27.3265 22.5001L27.5066 21.2034L26.2031 21.0907L27.3292 20.4224L26.6046 19.3321L27.8284 19.7954L28.2285 18.5497Z" fill="white"/>
<path d="M32.7168 10.2997L33.1169 11.5454L34.3407 11.0821L33.616 12.1724L34.7422 12.8407L33.4387 12.9534L33.6188 14.2501L32.7168 13.3013L31.8148 14.2501L31.9949 12.9534L30.6914 12.8407L31.8175 12.1724L31.0929 11.0821L32.3167 11.5454L32.7168 10.2997Z" fill="white"/>
<path d="M39.1816 15.3734L39.5817 16.6192L40.8055 16.1558L40.0809 17.2462L41.207 17.9144L39.9035 18.0272L40.0836 19.3238L39.1816 18.375L38.2796 19.3238L38.4597 18.0272L37.1562 17.9144L38.2824 17.2462L37.5577 16.1558L38.7815 16.6192L39.1816 15.3734Z" fill="white"/>
<path d="M35.8944 22.5L36.2107 23.2769L37.0467 23.3388L36.4059 23.8791L36.6067 24.6931L35.8944 24.2518L35.1822 24.6931L35.3829 23.8791L34.7422 23.3388L35.5782 23.2769L35.8944 22.5Z" fill="white"/>
<path d="M13.5625 22.5H10.8125V15.625H1.875V12.875H10.8125V6H13.5625V12.875H22.5V15.625H13.5625V22.5Z" fill="#D22D32"/>
<path d="M22.5 22.0421L15.625 17V18.375L21.2501 22.5H22.5V22.0421Z" fill="#D22D32"/>
<path d="M22.5003 6H22.1593L14.6504 11.5055H16.5259L22.5003 7.12475V6Z" fill="#D22D32"/>
<path opacity="0.15" d="M37.625 6H7.375C4.33762 6 1.875 8.46262 1.875 11.5V33.5C1.875 36.5374 4.33762 39 7.375 39H37.625C40.6624 39 43.125 36.5374 43.125 33.5V11.5C43.125 8.46262 40.6624 6 37.625 6ZM41.75 33.5C41.75 35.7743 39.8993 37.625 37.625 37.625H7.375C5.10075 37.625 3.25 35.7743 3.25 33.5V11.5C3.25 9.22575 5.10075 7.375 7.375 7.375H37.625C39.8993 7.375 41.75 9.22575 41.75 11.5V33.5Z" fill="black"/>
<path opacity="0.2" d="M37.625 7.375H7.375C5.09663 7.375 3.25 9.22163 3.25 11.5V12.875C3.25 10.5966 5.09663 8.75 7.375 8.75H37.625C39.9034 8.75 41.75 10.5966 41.75 12.875V11.5C41.75 9.22163 39.9034 7.375 37.625 7.375Z" fill="white"/>
</svg>
