<svg width="45" height="45" viewBox="0 0 45 45" fill="none" xmlns="http://www.w3.org/2000/svg">
<path d="M14.25 6H30.75V39H14.25V6Z" fill="white"/>
<path d="M7.375 6H15.625V39H7.375C4.339 39 1.875 36.536 1.875 33.5V11.5C1.875 8.464 4.339 6 7.375 6Z" fill="#2C6748"/>
<path d="M37.625 39H29.375L29.375 6H37.625C40.661 6 43.125 8.464 43.125 11.5V33.5C43.125 36.536 40.661 39 37.625 39Z" fill="#BE2A2C"/>
<path opacity="0.15" d="M37.625 6H7.375C4.33762 6 1.875 8.46262 1.875 11.5V33.5C1.875 36.5374 4.33762 39 7.375 39H37.625C40.6624 39 43.125 36.5374 43.125 33.5V11.5C43.125 8.46262 40.6624 6 37.625 6ZM41.75 33.5C41.75 35.7743 39.8993 37.625 37.625 37.625H7.375C5.10075 37.625 3.25 35.7743 3.25 33.5V11.5C3.25 9.22575 5.10075 7.375 7.375 7.375H37.625C39.8993 7.375 41.75 9.22575 41.75 11.5V33.5Z" fill="black"/>
<path opacity="0.2" d="M37.625 7.375H7.375C5.09663 7.375 3.25 9.22163 3.25 11.5V12.875C3.25 10.5966 5.09663 8.75 7.375 8.75H37.625C39.9034 8.75 41.75 10.5966 41.75 12.875V11.5C41.75 9.22163 39.9034 7.375 37.625 7.375Z" fill="white"/>
<path d="M26.2136 26.0901C25.5784 25.1413 25.1961 26.5287 24.543 26.4366C24.7149 25.3228 23.4732 25.7491 22.8985 26.0076L23.1254 25.6762C22.266 26.0763 21.2444 24.6972 20.6284 25.7147C20.4977 25.4328 19.4156 24.7673 18.977 25.2637C19.0114 23.8653 16.6079 23.9478 17.8674 25.3751C18.7336 25.6212 19.208 26.7006 20.5005 26.1368C20.6779 26.8656 21.9099 26.9385 22.4434 26.5452C22.3719 26.7666 22.4062 27.4005 22.387 27.5283C23.0456 28.0563 23.0539 27.2217 23.5172 26.9591C24.1896 26.6153 26.6454 27.6493 26.2122 26.0915L26.2136 26.0901Z" fill="#3B8288"/>
<path d="M20.6074 24.238C20.6074 24.238 20.6129 24.2422 20.6239 24.2477C20.6143 24.2422 20.6074 24.238 20.6074 24.238Z" fill="#A27037"/>
<path d="M25.5461 18.4011C25.5488 17.7177 20.5686 16.2643 22.0728 18.4946C21.7181 18.5455 21.1227 18.2883 21.0938 18.0106C21.1144 18.0656 20.9426 18.3516 20.8862 18.3777C20.8779 18.2402 20.8449 18.1137 20.8449 18.1137V18.1192C20.6731 17.693 20.8064 18.7146 20.5026 18.628C20.6071 18.5881 20.5108 18.1275 20.4311 18.188C20.4819 18.221 20.3664 18.7517 20.2647 18.7751C20.3266 18.6857 20.2069 18.3296 20.1794 18.4011C20.2661 18.7627 19.5607 19.1862 19.6624 19.365C19.2004 19.5286 19.0011 20.6657 19.8274 20.4058C19.4754 20.2216 19.6418 19.761 20.0639 19.8091C20.0447 19.805 20.1231 19.838 20.1011 19.8531C20.2097 20.3632 20.7679 19.7541 20.9879 19.6771C20.7556 20.9723 20.1602 22.2016 21.3839 23.49C20.9783 23.0623 20.9041 23.5642 21.3619 23.7141C21.0856 23.7278 20.7693 23.996 21.2451 24.1445C21.1474 24.2435 20.7707 23.9561 20.9769 24.1568C20.9728 24.1555 20.9687 24.1527 20.9646 24.1513C20.9646 24.1513 20.9673 24.1541 20.9728 24.1582C20.1863 24.1238 20.9384 24.4332 21.2671 24.4635C21.0003 24.8828 21.9298 24.4951 22.0206 24.4855C22.2034 24.9461 22.3478 24.5295 22.3066 24.1871C22.4372 24.337 22.5678 24.4855 22.7012 24.6326C22.9102 24.689 23.1384 25.6198 23.2952 25.1345C23.3007 25.1152 23.3034 25.096 23.3062 25.0767C23.6169 25.426 23.7654 25.558 23.6293 25.0038C23.7984 25.2816 23.9497 25.3613 23.9057 24.9983C24.1614 25.2665 24.0941 24.9021 24.0679 24.7151C24.3141 25.6927 26.7973 25.4865 26.5416 24.8292C26.1126 24.4112 23.3873 22.8836 24.0913 21.9293C24.3581 22.0655 25.6808 23.7223 25.1061 22.753C24.5959 21.4261 25.5406 22.753 25.6808 23.2452C25.9971 23.8158 25.5048 22.2497 25.4003 22.1947C26.2734 23.2851 26.1923 24.2448 25.9159 22.2318C25.9503 22.2978 26.0067 22.3501 26.0754 22.3762C26.0246 22.2745 25.9654 22.2346 25.9324 22.2195C25.9861 22.2318 26.0521 22.313 26.0796 22.3776C26.0782 22.3776 26.0768 22.3776 26.0754 22.3762C26.5416 24.8553 26.7107 24.4305 26.4178 22.1947C27.1218 24.9722 27.0228 24.9557 26.9458 22.1438C27.4504 22.8671 27.0874 24.3768 27.3033 25.0657C27.6801 24.2627 27.5453 21.9018 27.7914 21.2693C27.3281 20.8293 26.2611 18.5028 25.5488 18.4025L25.5461 18.4011ZM21.5737 24.2297C21.5737 24.2297 21.5737 24.2283 21.5737 24.227H21.5764C21.5764 24.227 21.5751 24.2283 21.5737 24.2297Z" fill="#A27037"/>
<path d="M20.7338 23.3071C20.8424 22.4257 20.0476 22.5467 19.477 22.5453C18.3619 21.6103 21.5711 20.8211 20.071 19.8049H20.0765C20.0765 19.8049 20.0655 19.8022 20.0669 19.8022L20.0765 19.8049C20.0765 19.8049 20.0449 19.7733 20.0463 19.7733C19.917 19.7939 19.7231 19.7994 19.6585 19.9603C19.6585 19.9603 19.6626 19.9631 19.6668 19.9672L19.4935 20.1707C19.4935 20.1789 19.7823 20.3728 19.7699 20.3866C19.7809 20.3838 19.796 20.3989 19.8043 20.4044C19.9555 20.8816 18.9999 21.0727 18.8088 21.5072C18.1969 22.7639 19.3216 23.1723 20.2154 23.1806C19.0123 24.4813 19.1236 23.3703 18.3151 22.6086C18.4293 22.1218 18.641 21.5072 17.97 21.3051C17.9741 21.1964 17.7913 21.0837 17.7431 21.2487C17.7885 21.2019 17.6249 21.0617 17.5575 21.1538C17.2963 20.8197 16.9896 21.6612 17.4503 21.5759C17.4613 21.6791 17.6331 21.6309 17.6593 21.6076C17.6551 21.7382 17.8545 21.7244 17.8806 21.6419C18.3344 21.9046 17.6799 22.3954 17.882 22.8066C18.1501 23.3016 18.6355 23.5009 18.6506 24.1513C19.0494 24.8031 20.6801 23.9409 20.7214 23.4817C20.7283 23.4281 20.731 23.3703 20.7351 23.3126L20.7338 23.3071ZM20.3845 20.6244C20.3845 20.6244 20.39 20.6299 20.3914 20.6313C20.3914 20.6313 20.3859 20.6272 20.3831 20.6244H20.3845Z" fill="#A9AC78"/>
<path d="M19.3999 19.6621C19.4067 19.6909 18.7687 19.8339 18.8609 19.5507C18.9819 19.5892 19.5456 19.1781 19.3174 19.2248C18.6876 19.6552 18.8952 19.1244 19.1029 18.7587C19.1647 18.7793 19.1744 19.0832 19.1414 19.1024C19.3242 18.9801 19.2472 18.3146 18.9915 18.6611C18.7412 18.5607 18.0702 19.2124 18.4456 19.4792C18.3136 20.0553 18.766 20.2987 19.25 20.1763L19.2527 20.1681H19.2954C19.2239 20.1584 19.4012 19.6951 19.3999 19.6634V19.6621Z" fill="#A9AC78"/>
</svg>
