<svg width="45" height="45" viewBox="0 0 45 45" fill="none" xmlns="http://www.w3.org/2000/svg">
<path d="M1.875 15.625H43.125V29.375H1.875V15.625Z" fill="white"/>
<path d="M7.375 6H37.625C40.661 6 43.125 8.464 43.125 11.5V17H1.875V11.5C1.875 8.464 4.339 6 7.375 6Z" fill="#81ACDC"/>
<path d="M37.625 39L7.375 39C4.339 39 1.875 36.536 1.875 33.5V28L43.125 28V33.5C43.125 36.536 40.661 39 37.625 39Z" fill="#81ACDC"/>
<path opacity="0.15" d="M37.625 6H7.375C4.33762 6 1.875 8.46262 1.875 11.5V33.5C1.875 36.5374 4.33762 39 7.375 39H37.625C40.6624 39 43.125 36.5374 43.125 33.5V11.5C43.125 8.46262 40.6624 6 37.625 6ZM41.75 33.5C41.75 35.7743 39.8993 37.625 37.625 37.625H7.375C5.10075 37.625 3.25 35.7743 3.25 33.5V11.5C3.25 9.22575 5.10075 7.375 7.375 7.375H37.625C39.8993 7.375 41.75 9.22575 41.75 11.5V33.5Z" fill="black"/>
<path d="M27.3267 22.4106C27.2992 22.4009 27.2703 22.4009 27.2703 22.4009L24.6056 22.3006C24.7225 22.2676 24.8325 22.2277 24.9397 22.1878C25.1858 22.0971 25.4168 22.0104 25.7042 22.0366C26.147 22.0764 26.4467 21.9101 26.6667 21.7891C26.7451 21.7464 26.8125 21.7079 26.8702 21.6901C26.9912 21.6502 27.0833 21.6818 27.1493 21.7038C27.2002 21.7217 27.2621 21.7423 27.291 21.6832C27.2992 21.6653 27.3088 21.6309 27.2745 21.5842C27.2112 21.4989 27.0283 21.4233 26.7753 21.4604C26.6598 21.4769 26.5718 21.5182 26.4783 21.5622C26.3037 21.6433 26.1071 21.7354 25.6423 21.6983C25.2766 21.6694 25.0525 21.7423 24.8352 21.8138C24.7101 21.8551 24.5905 21.8936 24.4475 21.9114L26.9417 20.7661C26.9417 20.7661 26.9692 20.7551 26.9912 20.7358C27.027 20.7042 27.0393 20.6643 27.0228 20.6258C27.0132 20.6038 26.9967 20.5873 26.9761 20.5777C26.9293 20.5584 26.873 20.5804 26.8675 20.5832L24.3663 21.5099C24.4612 21.4357 24.5478 21.3559 24.6317 21.2776C24.8242 21.0988 25.0043 20.9311 25.2793 20.8444C25.7028 20.7124 25.9173 20.4429 26.0741 20.2477C26.1305 20.1776 26.1786 20.1171 26.224 20.0772C26.3202 19.9947 26.4178 19.9878 26.488 19.9837C26.5416 19.9796 26.6076 19.9754 26.6117 19.9108C26.6117 19.8916 26.6076 19.8558 26.5595 19.8256C26.4687 19.7706 26.2707 19.7706 26.0521 19.9026C25.9517 19.9631 25.8857 20.0346 25.817 20.1102C25.6877 20.2518 25.5406 20.4127 25.0965 20.5557C24.7472 20.6684 24.5685 20.8224 24.3952 20.9709C24.2962 21.0562 24.2 21.1387 24.0748 21.2102L25.9407 19.1986C25.9847 19.1546 26.0095 19.0858 25.9627 19.0377C25.9462 19.0212 25.9242 19.0116 25.9008 19.0116C25.85 19.0116 25.8073 19.0542 25.8032 19.0583L23.848 20.8719C23.9071 20.7661 23.9566 20.6602 24.0047 20.5557C24.1133 20.3178 24.2165 20.0923 24.4378 19.9081C24.7788 19.6234 24.8737 19.2934 24.9438 19.0528C24.9686 18.9662 24.9906 18.8919 25.0181 18.8383C25.0758 18.7242 25.1625 18.6816 25.2257 18.6513C25.2738 18.6279 25.333 18.5991 25.3123 18.5372C25.3055 18.5193 25.2876 18.4877 25.2312 18.4794C25.1267 18.4629 24.9438 18.5399 24.7912 18.7448C24.7211 18.8397 24.6881 18.9304 24.6537 19.0267C24.5877 19.2068 24.5135 19.4117 24.1573 19.7142C23.8782 19.9521 23.771 20.1624 23.6678 20.3659C23.6087 20.4828 23.551 20.5956 23.463 20.7097L24.4172 18.1371C24.4406 18.0793 24.4378 18.0064 24.376 17.9803C24.354 17.9707 24.3306 17.9707 24.3086 17.9803C24.2618 17.9996 24.2385 18.0559 24.2357 18.0601L23.1233 20.4842C23.1385 20.3646 23.1426 20.2477 23.1467 20.1322C23.1563 19.8709 23.166 19.6234 23.2993 19.3677C23.5056 18.9744 23.4671 18.6334 23.4396 18.3832C23.43 18.2938 23.4203 18.2182 23.4258 18.1563C23.4355 18.0298 23.4987 17.9569 23.5455 17.9033C23.5812 17.8634 23.6252 17.8139 23.5812 17.7644C23.5688 17.7507 23.5386 17.7287 23.4836 17.7411C23.3805 17.7658 23.2402 17.9061 23.1783 18.1549C23.1495 18.2691 23.1536 18.3653 23.1577 18.4671C23.166 18.6596 23.1756 18.8768 22.9625 19.2921C22.7947 19.6179 22.7768 19.8544 22.7603 20.0813C22.7507 20.2119 22.7411 20.3384 22.7026 20.4773L22.5995 17.7356C22.5995 17.6737 22.5692 17.6063 22.5005 17.6063C22.4592 17.6063 22.4262 17.6324 22.4111 17.6778C22.4015 17.7053 22.4015 17.7314 22.4015 17.7342L22.3011 20.3989C22.2681 20.2821 22.2282 20.1721 22.1883 20.0648C22.0976 19.8187 22.011 19.5877 22.0371 19.3003C22.077 18.8576 21.9106 18.5578 21.7896 18.3378C21.747 18.2594 21.7085 18.1921 21.6906 18.1343C21.6507 18.0133 21.6823 17.9212 21.7043 17.8552C21.7222 17.8043 21.7428 17.7424 21.6837 17.7136C21.6658 17.7053 21.6301 17.6957 21.5847 17.7301C21.4995 17.7933 21.4238 17.9762 21.461 18.2292C21.4775 18.3447 21.5187 18.4327 21.5627 18.5262C21.6438 18.7008 21.736 18.8974 21.6988 19.3622C21.67 19.7279 21.7428 19.9521 21.8143 20.1693C21.8556 20.2944 21.8941 20.4141 21.912 20.5571L20.7666 18.0628C20.7432 18.0051 20.6896 17.9556 20.6263 17.9817C20.5878 17.9982 20.5672 18.0339 20.5713 18.0821C20.5727 18.1109 20.5837 18.1371 20.5837 18.1371L21.5105 20.6368C21.4362 20.5419 21.3565 20.4553 21.2781 20.3714C21.0993 20.1789 20.9316 19.9988 20.845 19.7238C20.713 19.3003 20.4435 19.0858 20.2482 18.9291C20.1781 18.8727 20.1176 18.8246 20.0777 18.7792C19.9952 18.6829 19.9883 18.5853 19.9842 18.5152C19.9801 18.4616 19.976 18.3956 19.9113 18.3914C19.8921 18.3914 19.8563 18.3956 19.8261 18.4437C19.7711 18.5344 19.7711 18.7324 19.9031 18.9511C19.9636 19.0514 20.0351 19.1174 20.1107 19.1862C20.2523 19.3154 20.4132 19.4626 20.5562 19.9067C20.669 20.2559 20.823 20.4347 20.9715 20.6079C21.0567 20.7069 21.1392 20.8032 21.2107 20.9297L19.1991 19.0638C19.1551 19.0198 19.0863 18.9951 19.0382 19.0432C19.0093 19.0721 19.0038 19.1147 19.0258 19.1573C19.0382 19.1834 19.0588 19.2027 19.0588 19.2027L20.8725 21.1579C20.7666 21.0988 20.6607 21.0493 20.5562 21.0012C20.3183 20.8926 20.0928 20.7894 19.9086 20.5681C19.624 20.2271 19.294 20.1322 19.052 20.0621C18.9667 20.0373 18.8925 20.0153 18.8375 19.9878C18.7233 19.9301 18.6807 19.8434 18.6505 19.7802C18.6271 19.7321 18.5982 19.6729 18.5363 19.6949C18.5185 19.7018 18.4868 19.7197 18.4786 19.7761C18.4621 19.8806 18.5391 20.0634 18.744 20.2161C18.8388 20.2862 18.9296 20.3192 19.0258 20.3536C19.206 20.4196 19.4108 20.4938 19.7133 20.8499C19.9512 21.1291 20.1616 21.2363 20.3651 21.3394C20.482 21.3986 20.5947 21.4563 20.7088 21.5443L18.1362 20.5901C18.0785 20.5667 18.0056 20.5694 17.9795 20.6313C17.9698 20.6533 17.9698 20.6767 17.9795 20.6987C17.9987 20.7454 18.0551 20.7688 18.0592 20.7716L20.4833 21.8839C20.3637 21.8688 20.2468 21.8647 20.1313 21.8606C19.8701 21.8509 19.6226 21.8413 19.3668 21.7079C18.9736 21.5017 18.6312 21.5402 18.3823 21.5691C18.293 21.5787 18.2173 21.5883 18.1555 21.5828C18.029 21.5732 17.9561 21.5086 17.9025 21.4632C17.8626 21.4274 17.8131 21.3848 17.7636 21.4274C17.7498 21.4398 17.7278 21.4701 17.7402 21.5251C17.765 21.6282 17.9052 21.7684 18.1541 21.8303C18.2682 21.8592 18.3645 21.8551 18.4662 21.8509C18.6587 21.8427 18.876 21.8331 19.2912 22.0462C19.6171 22.2139 19.8536 22.2318 20.0805 22.2483C20.2111 22.2579 20.3376 22.2676 20.4765 22.3061L17.7347 22.4092C17.6728 22.4092 17.6068 22.4394 17.6055 22.5082C17.6055 22.5316 17.6137 22.5536 17.6302 22.5701C17.666 22.6058 17.7265 22.6072 17.732 22.6072L20.3967 22.7076C20.2798 22.7392 20.1698 22.7804 20.0626 22.8203C19.8165 22.9111 19.5855 22.9977 19.2981 22.9716C18.8553 22.9317 18.5556 23.0981 18.3356 23.2191C18.2572 23.2617 18.1898 23.3002 18.1321 23.3181C18.0111 23.3579 17.919 23.3263 17.853 23.3043C17.8021 23.2864 17.7402 23.2658 17.7113 23.3249C17.7031 23.3428 17.6935 23.3772 17.7278 23.4239C17.7911 23.5092 17.974 23.5848 18.227 23.5477C18.3425 23.5312 18.4305 23.4899 18.524 23.4459C18.6986 23.3648 18.8952 23.2727 19.36 23.3098C19.7257 23.3387 19.9498 23.2658 20.1671 23.1943C20.2922 23.1531 20.4118 23.1146 20.5548 23.0967L18.0606 24.2421C18.0028 24.2654 17.9533 24.3191 17.9795 24.3823C17.9946 24.4181 18.0262 24.4373 18.0688 24.4373C18.0716 24.4373 18.0757 24.4373 18.0785 24.4373C18.1073 24.4359 18.1335 24.4249 18.1335 24.4249L20.6332 23.4982C20.5383 23.5724 20.4517 23.6522 20.3678 23.7306C20.1753 23.9093 19.9952 24.0771 19.7202 24.1637C19.2967 24.2957 19.0822 24.5652 18.9255 24.7604C18.8691 24.8306 18.821 24.8911 18.7756 24.9309C18.6793 25.0134 18.5817 25.0203 18.5116 25.0244C18.458 25.0272 18.392 25.0327 18.3878 25.0973C18.3878 25.1166 18.392 25.1523 18.4401 25.1826C18.5308 25.2376 18.7288 25.2376 18.9475 25.1056C19.0478 25.0451 19.1138 24.9736 19.1826 24.8979C19.3118 24.7563 19.459 24.5954 19.9031 24.4524C20.2523 24.3397 20.4311 24.1857 20.6043 24.0372C20.7033 23.9519 20.7996 23.8694 20.9247 23.7979L19.0588 25.8096C19.0148 25.8536 18.9901 25.9223 19.0382 25.9704C19.0547 25.9883 19.0767 25.9966 19.1001 25.9966C19.1166 25.9966 19.1345 25.9924 19.1523 25.9828C19.1785 25.9704 19.1977 25.9498 19.1977 25.9498L21.153 24.1362C21.0938 24.2421 21.0443 24.3479 20.9962 24.4524C20.8876 24.6903 20.7845 24.9158 20.5631 25.1001C20.2221 25.3847 20.1272 25.7147 20.0571 25.9567C20.0323 26.0433 20.0103 26.1162 19.9828 26.1712C19.9251 26.2853 19.8385 26.3279 19.7752 26.3596C19.7271 26.3829 19.668 26.4118 19.69 26.4737C19.6968 26.4916 19.7147 26.5232 19.7711 26.5314C19.8756 26.5479 20.0585 26.4709 20.2111 26.2661C20.2812 26.1726 20.3142 26.0804 20.3486 25.9842C20.4146 25.8041 20.4888 25.5992 20.845 25.2967C21.1241 25.0588 21.2313 24.8484 21.3345 24.6449C21.3936 24.5281 21.4513 24.4153 21.5393 24.3012L20.5851 26.8738C20.5617 26.9316 20.5645 27.0044 20.6263 27.0306C20.6373 27.0347 20.6497 27.0374 20.6607 27.0374C20.6717 27.0374 20.6827 27.0347 20.6937 27.0306C20.7405 27.0113 20.7638 26.9549 20.7666 26.9508L21.879 24.5267C21.8638 24.6463 21.8597 24.7632 21.8556 24.8787C21.846 25.1399 21.8363 25.3874 21.703 25.6432C21.4967 26.0364 21.5352 26.3788 21.5641 26.6277C21.5737 26.7171 21.5833 26.7927 21.5778 26.8546C21.5682 26.9811 21.5036 27.0539 21.4582 27.1076C21.4225 27.1474 21.3798 27.1969 21.4225 27.2464C21.4348 27.2602 21.4651 27.2822 21.5201 27.2684C21.6232 27.2437 21.7635 27.1034 21.8253 26.8546C21.8542 26.7404 21.8501 26.6442 21.846 26.5424C21.8377 26.3499 21.8281 26.1327 22.0412 25.7174C22.209 25.3916 22.2268 25.1551 22.2433 24.9282C22.253 24.7976 22.2626 24.6711 22.3011 24.5322L22.4042 27.2739C22.4042 27.3358 22.4345 27.4032 22.5032 27.4032C22.5445 27.4032 22.5775 27.3771 22.5926 27.3317C22.6022 27.3042 22.6022 27.2781 22.6022 27.2753L22.7026 24.6106C22.7356 24.7274 22.7755 24.8374 22.8153 24.9447C22.9061 25.1908 22.9927 25.4218 22.9666 25.7092C22.9267 26.1519 23.0931 26.4517 23.2141 26.6717C23.2567 26.7501 23.2952 26.8174 23.3131 26.8752C23.353 26.9962 23.3213 27.0883 23.2993 27.1543C23.2815 27.2052 23.2608 27.2671 23.32 27.2959C23.3282 27.3001 23.3392 27.3042 23.3543 27.3042C23.3722 27.3042 23.3942 27.2987 23.419 27.2808C23.5042 27.2176 23.5798 27.0347 23.5427 26.7817C23.5262 26.6662 23.485 26.5782 23.441 26.4847C23.3598 26.3101 23.2677 26.1134 23.3048 25.6487C23.3337 25.2829 23.2608 25.0588 23.1893 24.8416C23.1481 24.7164 23.1096 24.5968 23.0917 24.4538L24.2371 26.9481C24.2371 26.9481 24.2481 26.9756 24.2673 26.9976C24.299 27.0333 24.3388 27.0457 24.3773 27.0292C24.3993 27.0196 24.4158 27.0031 24.4255 26.9824C24.4447 26.9357 24.4227 26.8793 24.42 26.8738L23.4932 24.3741C23.5675 24.4689 23.6472 24.5556 23.7256 24.6394C23.9043 24.8319 24.0721 25.0121 24.1587 25.2871C24.2907 25.7106 24.5602 25.9251 24.7555 26.0818C24.8256 26.1382 24.8861 26.1863 24.926 26.2317C25.0085 26.3279 25.0153 26.4256 25.0195 26.4957C25.0222 26.5493 25.0277 26.6153 25.0923 26.6194H25.0965C25.1157 26.6194 25.1501 26.6112 25.1776 26.5672C25.2326 26.4764 25.2326 26.2784 25.1006 26.0598C25.0401 25.9594 24.9686 25.8934 24.893 25.8247C24.7513 25.6954 24.5905 25.5483 24.4475 25.1042C24.3347 24.7549 24.1807 24.5762 24.0322 24.4029C23.947 24.3039 23.8645 24.2077 23.7943 24.0826L25.806 25.9484C25.85 25.9924 25.9187 26.0172 25.9668 25.9691C25.9957 25.9402 26.0012 25.8989 25.9792 25.8549C25.9668 25.8288 25.9462 25.8096 25.9462 25.8096L24.1326 23.8543C24.2385 23.9134 24.3443 23.9629 24.4488 24.0111C24.6867 24.1197 24.9122 24.2228 25.0965 24.4442C25.3811 24.7852 25.7111 24.8801 25.9517 24.9502C26.0383 24.9749 26.1112 24.9969 26.1662 25.0244C26.2803 25.0822 26.323 25.1688 26.3546 25.2321C26.3752 25.2733 26.3986 25.3228 26.444 25.3228C26.4522 25.3228 26.4605 25.3214 26.4687 25.3187C26.4866 25.3118 26.5182 25.2939 26.5265 25.2376C26.543 25.1331 26.466 24.9502 26.2611 24.7976C26.1676 24.7274 26.0755 24.6944 25.9792 24.6601C25.7991 24.5941 25.5942 24.5198 25.2917 24.1637C25.0538 23.8846 24.8435 23.7773 24.64 23.6742C24.5231 23.6151 24.4103 23.5573 24.2962 23.4693L26.8688 24.4236C26.9266 24.4469 26.9995 24.4442 27.0256 24.3823C27.0352 24.3603 27.0352 24.3369 27.0256 24.3149C27.0063 24.2682 26.95 24.2448 26.9458 24.2421L24.5217 23.1297C24.6413 23.1448 24.7582 23.1489 24.8737 23.1531C25.135 23.1627 25.3825 23.1723 25.6382 23.3057C26.0315 23.5119 26.3738 23.4734 26.6227 23.4459C26.7121 23.4363 26.7877 23.4267 26.8496 23.4322C26.9775 23.4418 27.049 23.5051 27.1026 23.5518C27.1301 23.5766 27.1631 23.6054 27.1975 23.6054C27.2126 23.6054 27.2263 23.5999 27.2415 23.5876C27.2552 23.5752 27.2772 23.5449 27.2635 23.4899C27.2387 23.3868 27.0985 23.2466 26.8496 23.1847C26.7355 23.1558 26.6392 23.1599 26.5375 23.1641C26.345 23.1723 26.1277 23.1819 25.7125 22.9688C25.3866 22.8011 25.1501 22.7832 24.9232 22.7667C24.7926 22.7571 24.6661 22.7474 24.5272 22.7089L27.269 22.6058C27.3308 22.6058 27.3968 22.5756 27.3968 22.5068C27.3968 22.4656 27.3707 22.4326 27.3253 22.4174L27.3267 22.4106Z" fill="#EDB840"/>
<path opacity="0.2" d="M37.625 7.375H7.375C5.09663 7.375 3.25 9.22163 3.25 11.5V12.875C3.25 10.5966 5.09663 8.75 7.375 8.75H37.625C39.9034 8.75 41.75 10.5966 41.75 12.875V11.5C41.75 9.22163 39.9034 7.375 37.625 7.375Z" fill="white"/>
</svg>
