<svg width="45" height="45" viewBox="0 0 45 45" fill="none" xmlns="http://www.w3.org/2000/svg">
<path d="M14.25 6H30.75V39H14.25V6Z" fill="white"/>
<path d="M7.375 6H15.625V39H7.375C4.339 39 1.875 36.536 1.875 33.5V11.5C1.875 8.464 4.339 6 7.375 6Z" fill="#3B8655"/>
<path d="M37.625 39H29.375L29.375 6H37.625C40.661 6 43.125 8.464 43.125 11.5V33.5C43.125 36.536 40.661 39 37.625 39Z" fill="#3B8655"/>
<path opacity="0.15" d="M37.625 6H7.375C4.33762 6 1.875 8.46262 1.875 11.5V33.5C1.875 36.5374 4.33762 39 7.375 39H37.625C40.6624 39 43.125 36.5374 43.125 33.5V11.5C43.125 8.46262 40.6624 6 37.625 6ZM41.75 33.5C41.75 35.7743 39.8993 37.625 37.625 37.625H7.375C5.10075 37.625 3.25 35.7743 3.25 33.5V11.5C3.25 9.22575 5.10075 7.375 7.375 7.375H37.625C39.8993 7.375 41.75 9.22575 41.75 11.5V33.5Z" fill="black"/>
<path opacity="0.2" d="M37.625 7.375H7.375C5.09663 7.375 3.25 9.22163 3.25 11.5V12.875C3.25 10.5966 5.09663 8.75 7.375 8.75H37.625C39.9034 8.75 41.75 10.5966 41.75 12.875V11.5C41.75 9.22163 39.9034 7.375 37.625 7.375Z" fill="white"/>
</svg>
